# xmcd CD database file
#
# Track frame offsets:
#	183
#	13125
#	25943
#	36433
#	52653
#	65555
#	81515
#	94650
#	108935
#	125940
#	140995
#	154873
#	169770
#	180078
#	193500
#	208145
#	222763
#	236735
#	251650
#	264473
#	279855
#	295223
#
# Disc length: 4157 seconds
#
# Revision: 1
# Processed by: cddbd v1.5.2PL0 Copyright (c) Steve Scherf et al.
# Submitted via: CDex 1.70beta1
#
DISCID=47103b16
DTITLE=Glenn Miller - Fresh As A Daisy (The American Band Of The A.E.F.)
DYEAR=1900
DGENRE=Big Band
TTITLE0=Cabana in Havana, A
TTITLE1=Fresh as a Daisy
TTITLE2=Stardust
TTITLE3=Sweeter Than the Sweetest
TTITLE4=Don't Cry, Cherie
TTITLE5=Blue Moonlight
TTITLE6=Farewell Blues
TTITLE7=Who's Sorry Now
TTITLE8=I Dreamt I Dwelt in Harlem
TTITLE9=Let's Have Another Cup of Coffee
TTITLE10=It Was Written in the Stars
TTITLE11=My Melancholy Lullaby
TTITLE12=All I Do Is Dream of You
TTITLE13=Blue Orchids
TTITLE14=Blue Rain
TTITLE15=Wonderful One
TTITLE16=Twilight Interlude
TTITLE17=Pagan Love Song
TTITLE18=Runnin' Wild
TTITLE19=Ciribiribin
TTITLE20=My Isle of Golden Dreams
TTITLE21=In the Mood
EXTD=
EXTT0=
EXTT1=
EXTT2=
EXTT3=
EXTT4=
EXTT5=
EXTT6=
EXTT7=
EXTT8=
EXTT9=
EXTT10=
EXTT11=
EXTT12=
EXTT13=
EXTT14=
EXTT15=
EXTT16=
EXTT17=
EXTT18=
EXTT19=
EXTT20=
EXTT21=
PLAYORDER=
